<svg width="320" height="160" viewBox="0 0 320 160" xmlns="http://www.w3.org/2000/svg" role="img" aria-labelledby="title">
  <title>The Lutheran World Federation</title>
  <rect width="320" height="160" fill="none"/>
  <g transform="translate(32 24)" fill="#3b82f6">
    <path d="M64 0c26.5 0 48 21.5 48 48s-21.5 48-48 48S16 74.5 16 48 37.5 0 64 0z" opacity="0.9"/>
    <path d="M64 12c-19.9 0-36 16.1-36 36s16.1 36 36 36 36-16.1 36-36S83.9 12 64 12z" fill="#60a5fa"/>
    <path d="M58 25l14 14h-10v18l-20-20 16-12z" fill="#1d4ed8"/>
    <path d="M94 62l-18 18V74H58v18l-12-12 20-20h28z" fill="#1d4ed8"/>
    <path d="M112 48c8 0 14 6 14 14s-6 14-14 14c-8 0-14-6-14-14s6-14 14-14z" fill="#34d399"/>
  </g>
  <g transform="translate(164 60)" fill="#1f2937" font-family="'Montserrat', 'Helvetica Neue', Arial, sans-serif">
    <text x="0" y="32" font-size="36" font-weight="700">The Lutheran</text>
    <text x="0" y="68" font-size="34" font-weight="700">World Federation</text>
  </g>
</svg>
